HIERARCHY
ROOT Hips
{
	OFFSET 0.000000 121.760803 0.000000
	CHANNELS 6 Xposition Yposition Zposition Xrotation Yrotation Zrotation 
	JOINT Spine
	{
		OFFSET 0.072000 7.257294 -0.789700
		CHANNELS 3 Xrotation Yrotation Zrotation
		JOINT Spine1
		{
			OFFSET 0.000000 12.508769 -0.658067
			CHANNELS 3 Xrotation Yrotation Zrotation
			JOINT Spine1_split
			{
				OFFSET 0.000000 12.508769 -0.658067
				CHANNELS 3 Xrotation Yrotation Zrotation
				JOINT Spine2
				{
					OFFSET 0.000000 12.508769 -0.658067
					CHANNELS 3 Xrotation Yrotation Zrotation
					JOINT Neck
					{
						OFFSET 0.000000 14.033295 7.520400
						CHANNELS 3 Xrotation Yrotation Zrotation
						JOINT Head
						{
							OFFSET 0.000000 8.198502 5.703100
							CHANNELS 3 Xrotation Yrotation Zrotation
							JOINT HeadTop_End
							{
								OFFSET 0.000000 17.760803 13.332701
								CHANNELS 3 Xrotation Yrotation Zrotation
								End Site
								{
									OFFSET 0.000000 0.000000 0.000000
								}
							}
						}
					}
					JOINT LeftShoulder
					{
						OFFSET 6.292450 5.785301 -0.669000
						CHANNELS 3 Xrotation Yrotation Zrotation
						JOINT LeftShoulder_split
						{
							OFFSET 6.292450 5.785301 -0.669000
							CHANNELS 3 Xrotation Yrotation Zrotation
							JOINT LeftArm
							{
								OFFSET 13.907140 -6.093903 1.965100
								CHANNELS 3 Xrotation Yrotation Zrotation
								JOINT LeftForeArm
								{
									OFFSET 34.140198 0.000000 0.000000
									CHANNELS 3 Xrotation Yrotation Zrotation
									JOINT LeftHand
									{
										OFFSET 40.960209 0.000000 0.000000
										CHANNELS 3 Xrotation Yrotation Zrotation
										JOINT LeftHandThumb1
										{
											OFFSET 10.006996 -7.170425 9.573125
											CHANNELS 3 Xrotation Yrotation Zrotation
											JOINT LeftHandThumb2
											{
												OFFSET 1.835007 -1.059448 1.059443
												CHANNELS 3 Xrotation Yrotation Zrotation
												JOINT LeftHandThumb3
												{
													OFFSET 2.112267 -1.219513 1.219518
													CHANNELS 3 Xrotation Yrotation Zrotation
													JOINT LeftHandThumb4
													{
														OFFSET 4.843811 -2.796570 2.796576
														CHANNELS 3 Xrotation Yrotation Zrotation
														End Site
														{
															OFFSET 0.000000 0.000000 0.000000
														}
													}
												}
											}
										}
										JOINT LeftHandIndex1
										{
											OFFSET 18.389847 -0.922348 4.596882
											CHANNELS 3 Xrotation Yrotation Zrotation
											JOINT LeftHandIndex2
											{
												OFFSET 4.711273 0.000000 0.000000
												CHANNELS 3 Xrotation Yrotation Zrotation
												JOINT LeftHandIndex3
												{
													OFFSET 2.886131 0.000000 0.000000
													CHANNELS 3 Xrotation Yrotation Zrotation
													JOINT LeftHandIndex4
													{
														OFFSET 6.145912 0.000000 0.000000
														CHANNELS 3 Xrotation Yrotation Zrotation
														End Site
														{
															OFFSET 0.000000 0.000000 0.000000
														}
													}
												}
											}
										}
										JOINT LeftHandMiddle1
										{
											OFFSET 18.013008 0.000000 0.000000
											CHANNELS 3 Xrotation Yrotation Zrotation
											JOINT LeftHandMiddle2
											{
												OFFSET 4.946693 0.000000 0.000000
												CHANNELS 3 Xrotation Yrotation Zrotation
												JOINT LeftHandMiddle3
												{
													OFFSET 3.342232 0.000000 0.000000
													CHANNELS 3 Xrotation Yrotation Zrotation
													JOINT LeftHandMiddle4
													{
														OFFSET 4.461754 0.000000 0.000000
														CHANNELS 3 Xrotation Yrotation Zrotation
														End Site
														{
															OFFSET 0.000000 0.000000 0.000000
														}
													}
												}
											}
										}
										JOINT LeftHandRing1
										{
											OFFSET 15.849892 -0.102921 -4.126150
											CHANNELS 3 Xrotation Yrotation Zrotation
											JOINT LeftHandRing2
											{
												OFFSET 3.527054 0.000000 0.000000
												CHANNELS 3 Xrotation Yrotation Zrotation
												JOINT LeftHandRing3
												{
													OFFSET 2.961098 0.000000 0.000000
													CHANNELS 3 Xrotation Yrotation Zrotation
													JOINT LeftHandRing4
													{
														OFFSET 4.927200 0.000000 0.000000
														CHANNELS 3 Xrotation Yrotation Zrotation
														End Site
														{
															OFFSET 0.000000 0.000000 0.000000
														}
													}
												}
											}
										}
										JOINT LeftHandPinky1
										{
											OFFSET 12.791824 -0.832031 -6.799156
											CHANNELS 3 Xrotation Yrotation Zrotation
											JOINT LeftHandPinky2
											{
												OFFSET 3.327133 0.000000 0.000000
												CHANNELS 3 Xrotation Yrotation Zrotation
												JOINT LeftHandPinky3
												{
													OFFSET 3.014900 0.000000 0.000000
													CHANNELS 3 Xrotation Yrotation Zrotation
													JOINT LeftHandPinky4
													{
														OFFSET 5.847786 0.000000 0.000000
														CHANNELS 3 Xrotation Yrotation Zrotation
														End Site
														{
															OFFSET 0.000000 0.000000 0.000000
														}
													}
												}
											}
										}
									}
								}
							}
						}
					}
					JOINT RightShoulder
					{
						OFFSET -6.292450 5.785301 -0.669000
						CHANNELS 3 Xrotation Yrotation Zrotation
						JOINT RightShoulder_split
						{
							OFFSET -6.292450 5.785301 -0.669000
							CHANNELS 3 Xrotation Yrotation Zrotation
							JOINT RightArm
							{
								OFFSET -13.907140 -6.093903 1.965100
								CHANNELS 3 Xrotation Yrotation Zrotation
								JOINT RightForeArm
								{
									OFFSET -34.140198 0.000000 0.000000
									CHANNELS 3 Xrotation Yrotation Zrotation
									JOINT RightHand
									{
										OFFSET -40.960209 0.000000 0.000000
										CHANNELS 3 Xrotation Yrotation Zrotation
										JOINT RightHandThumb1
										{
											OFFSET -10.007050 -7.170456 9.573117
											CHANNELS 3 Xrotation Yrotation Zrotation
											JOINT RightHandThumb2
											{
												OFFSET -1.835007 -1.059448 1.059443
												CHANNELS 3 Xrotation Yrotation Zrotation
												JOINT RightHandThumb3
												{
													OFFSET -2.112267 -1.219513 1.219518
													CHANNELS 3 Xrotation Yrotation Zrotation
													JOINT RightHandThumb4
													{
														OFFSET -4.843834 -2.796585 2.796590
														CHANNELS 3 Xrotation Yrotation Zrotation
														End Site
														{
															OFFSET 0.000000 0.000000 0.000000
														}
													}
												}
											}
										}
										JOINT RightHandIndex1
										{
											OFFSET -18.389870 -0.922424 4.596786
											CHANNELS 3 Xrotation Yrotation Zrotation
											JOINT RightHandIndex2
											{
												OFFSET -4.711273 0.000000 0.000000
												CHANNELS 3 Xrotation Yrotation Zrotation
												JOINT RightHandIndex3
												{
													OFFSET -2.886131 0.000000 0.000000
													CHANNELS 3 Xrotation Yrotation Zrotation
													JOINT RightHandIndex4
													{
														OFFSET -6.145920 0.000000 0.000000
														CHANNELS 3 Xrotation Yrotation Zrotation
														End Site
														{
															OFFSET 0.000000 0.000000 0.000000
														}
													}
												}
											}
										}
										JOINT RightHandMiddle1
										{
											OFFSET -18.013008 0.000000 0.000000
											CHANNELS 3 Xrotation Yrotation Zrotation
											JOINT RightHandMiddle2
											{
												OFFSET -4.946693 0.000000 0.000000
												CHANNELS 3 Xrotation Yrotation Zrotation
												JOINT RightHandMiddle3
												{
													OFFSET -3.342232 0.000000 0.000000
													CHANNELS 3 Xrotation Yrotation Zrotation
													JOINT RightHandMiddle4
													{
														OFFSET -4.461754 0.000000 0.000000
														CHANNELS 3 Xrotation Yrotation Zrotation
														End Site
														{
															OFFSET 0.000000 0.000000 0.000000
														}
													}
												}
											}
										}
										JOINT RightHandRing1
										{
											OFFSET -15.849876 -0.102936 -4.126237
											CHANNELS 3 Xrotation Yrotation Zrotation
											JOINT RightHandRing2
											{
												OFFSET -3.527054 0.000000 0.000000
												CHANNELS 3 Xrotation Yrotation Zrotation
												JOINT RightHandRing3
												{
													OFFSET -2.961098 0.000000 0.000000
													CHANNELS 3 Xrotation Yrotation Zrotation
													JOINT RightHandRing4
													{
														OFFSET -4.927200 0.000000 0.000000
														CHANNELS 3 Xrotation Yrotation Zrotation
														End Site
														{
															OFFSET 0.000000 0.000000 0.000000
														}
													}
												}
											}
										}
										JOINT RightHandPinky1
										{
											OFFSET -12.791786 -0.832077 -6.799222
											CHANNELS 3 Xrotation Yrotation Zrotation
											JOINT RightHandPinky2
											{
												OFFSET -3.327133 0.000000 0.000000
												CHANNELS 3 Xrotation Yrotation Zrotation
												JOINT RightHandPinky3
												{
													OFFSET -3.014900 0.000000 0.000000
													CHANNELS 3 Xrotation Yrotation Zrotation
													JOINT RightHandPinky4
													{
														OFFSET -5.847786 0.000000 0.000000
														CHANNELS 3 Xrotation Yrotation Zrotation
														End Site
														{
															OFFSET 0.000000 0.000000 0.000000
														}
													}
												}
											}
										}
									}
								}
							}
						}
					}
				}
			}
		}
	}
	JOINT LeftUpLeg
	{
		OFFSET 13.026900 -6.336304 -1.092800
		CHANNELS 3 Xrotation Yrotation Zrotation
		JOINT LeftLeg
		{
			OFFSET 0.524474 -46.096886 9.782700
			CHANNELS 3 Xrotation Yrotation Zrotation
			JOINT LeftFoot
			{
				OFFSET -0.524474 -53.427422 -12.948200
				CHANNELS 3 Xrotation Yrotation Zrotation
				JOINT LeftToeBase
				{
					OFFSET 0.192200 -14.009700 16.364100
					CHANNELS 3 Xrotation Yrotation Zrotation
					JOINT LeftToe_End
					{
						OFFSET -1.784700 -0.561700 9.474800
						CHANNELS 3 Xrotation Yrotation Zrotation
						End Site
						{
							OFFSET 0.000000 0.000000 0.000000
						}
					}
				}
			}
		}
	}
	JOINT RightUpLeg
	{
		OFFSET -12.883000 -6.336304 -1.092800
		CHANNELS 3 Xrotation Yrotation Zrotation
		JOINT RightLeg
		{
			OFFSET -0.524587 -46.096825 9.782800
			CHANNELS 3 Xrotation Yrotation Zrotation
			JOINT RightFoot
			{
				OFFSET 0.524587 -53.427383 -12.948300
				CHANNELS 3 Xrotation Yrotation Zrotation
				JOINT RightToeBase
				{
					OFFSET -0.192200 -14.009700 16.364100
					CHANNELS 3 Xrotation Yrotation Zrotation
					JOINT RightToe_End
					{
						OFFSET 1.784700 -0.561700 9.474800
						CHANNELS 3 Xrotation Yrotation Zrotation
						End Site
						{
							OFFSET 0.000000 0.000000 0.000000
						}
					}
				}
			}
		}
	}
}
MOTION
Frames: 6
Frame Time: 0.016667
0.189620 63.690857 11.916182 0.144495 0.157772 0.920701 10.430452 0.031143 -1.535056 -0.199272 0.216427 -0.355483 0.000000 0.000000 0.000000 -0.199595 0.248527 -0.300892 -1.001772 -1.276608 0.469465 -8.883415 -4.319390 -5.320496 -0.000000 -0.000001 0.000000 0.823518 -15.262022 -7.868746 0.000000 0.000000 0.000000 4.746754 -21.216413 -54.862207 0.000010 -62.197547 0.000012 31.062959 4.315272 41.770206 6.610618 1.798228 20.801497 2.716392 20.172580 -24.389176 -5.537253 29.849522 5.070900 0.000002 -0.000004 -0.000003 -0.224162 2.792764 -26.913881 0.396835 2.121286 -21.189286 0.083128 0.984449 -9.653141 0.000002 -0.000002 0.000000 1.299137 7.334320 -16.510942 0.329971 1.940105 -19.302436 0.233324 1.638446 -16.208121 0.000001 0.000000 0.000000 1.797264 9.808450 -14.182650 0.205957 1.541208 -15.221560 0.265310 1.744711 -17.292082 -0.000001 -0.000002 0.000005 2.041519 10.867642 -13.920347 0.168520 1.396441 -13.761329 0.107161 1.116567 -10.963889 -0.000001 -0.000000 0.000001 3.171097 -4.378722 8.782887 0.000000 0.000000 0.000000 -3.950252 37.253412 63.733684 0.000026 55.137932 -0.000020 43.537279 4.741009 -36.277952 -9.383508 -1.613325 -17.604705 3.563416 -24.331444 34.658818 -6.607956 -37.497172 -11.176217 -0.000000 0.000001 -0.000002 2.952120 1.011181 13.530166 0.472457 -2.045695 26.006729 0.059761 -0.744394 9.177788 -0.000001 0.000000 -0.000001 0.105320 -3.658209 2.530032 0.584992 -2.261685 29.000645 0.020466 -0.436576 5.367128 -0.000003 0.000001 -0.000003 0.455247 -7.625795 4.309856 0.107460 -0.995708 12.318861 0.072394 -0.818831 10.104473 0.000000 0.000001 -0.000000 -11.164699 -10.228241 7.169469 0.029107 -0.520499 6.403081 0.028653 -0.516322 6.351257 0.000000 0.000001 -0.000000 -91.851011 -8.992823 13.333510 81.196073 4.002860 -0.426634 12.387338 -7.112057 -7.788395 -0.103113 0.000001 -0.000002 0.000000 0.000001 0.000000 -93.037558 10.008862 -9.097423 81.265386 -4.058038 -1.315623 13.623535 0.312421 8.692953 -0.195510 0.000003 0.000001 0.000000 -0.000000 0.000000 
0.189955 63.675369 11.952463 0.221012 0.167430 0.920919 10.467077 0.030451 -1.535636 -0.063329 0.215446 -0.380943 0.000000 0.000000 0.000000 -0.135199 0.251406 -0.311500 -0.819939 -1.276514 0.424692 -9.824152 -4.410229 -5.195477 0.000000 0.000000 0.000000 1.153611 -14.769746 -6.772560 0.000000 0.000000 0.000000 2.903376 -20.762703 -57.237740 0.000026 -61.769642 0.000018 32.795184 3.652910 41.345047 6.533111 1.838521 20.872488 2.677545 20.203949 -24.333468 -5.498106 29.834461 4.956432 0.000000 0.000003 -0.000001 -0.213798 2.829558 -27.080115 0.399414 2.127938 -21.258936 0.083551 0.986919 -9.677612 0.000000 -0.000003 0.000000 1.306681 7.335267 -16.626919 0.323884 1.922667 -19.122289 0.233321 1.638472 -16.208162 0.000001 0.000001 0.000001 1.816476 9.843956 -14.270838 0.205425 1.539300 -15.202398 0.268396 1.754559 -17.392862 -0.000003 -0.000001 0.000000 2.011318 10.855354 -13.919873 0.168834 1.397693 -13.774337 0.108157 1.121714 -11.014963 0.000000 -0.000000 0.000002 3.187849 -4.727845 8.245238 0.000000 0.000000 0.000000 -4.932283 37.148388 65.022124 0.000004 54.880092 -0.000008 44.176519 5.104101 -36.335370 -9.372625 -1.608887 -17.589743 3.594632 -24.360898 34.677362 -6.576854 -37.532695 -11.143426 -0.000001 0.000004 0.000003 2.953648 1.011732 13.517902 0.476480 -2.053906 26.119041 0.060223 -0.747285 9.213529 0.000000 -0.000004 0.000000 0.105318 -3.658237 2.530069 0.587676 -2.266486 29.068045 0.020253 -0.434260 5.338712 0.000001 -0.000001 0.000003 0.455252 -7.625835 4.309878 0.108250 -0.999310 12.364097 0.071741 -0.815149 10.058757 -0.000001 0.000001 -0.000004 -11.166263 -10.222018 7.155018 0.029194 -0.521220 6.412227 0.028794 -0.517677 6.367983 0.000002 -0.000001 0.000001 -92.020045 -8.980357 13.264313 81.242744 4.058637 -0.393956 12.496532 -7.092855 -7.581609 -0.115874 -0.000004 -0.000003 -0.000000 -0.000000 0.000000 -93.189318 10.039041 -9.016318 81.394688 -4.114624 -1.361367 13.654000 0.266324 8.570364 -0.232742 0.000000 -0.000001 -0.000000 0.000000 0.000000 
0.190023 63.663200 11.994007 0.269613 0.175656 0.922701 10.538138 0.028001 -1.537335 0.117320 0.217353 -0.407600 0.000000 0.000000 0.000000 -0.022415 0.256674 -0.330249 -0.608625 -1.274648 0.376579 -10.758934 -4.494758 -5.054917 0.000000 -0.000000 -0.000000 1.483754 -14.226186 -5.573877 0.000000 0.000000 0.000000 1.069129 -20.426970 -59.574180 -0.000043 -61.355091 -0.000040 34.405951 2.995972 41.065078 6.452960 1.879068 20.945113 2.637614 20.235388 -24.276309 -5.454174 29.824082 4.818341 0.000001 0.000002 0.000000 -0.202160 2.869528 -27.281736 0.403274 2.137810 -21.362735 0.083948 0.989249 -9.700714 -0.000001 0.000000 0.000002 1.314188 7.336115 -16.743268 0.317882 1.905288 -18.942396 0.233316 1.638449 -16.208138 -0.000002 -0.000000 -0.000002 1.837833 9.880280 -14.375272 0.203776 1.533224 -15.140806 0.273334 1.770301 -17.553876 0.000000 0.000001 -0.000001 1.980424 10.842509 -13.919524 0.169158 1.399076 -13.787690 0.109880 1.130446 -11.102235 0.000001 -0.000000 0.000003 3.198763 -5.102190 7.675742 0.000000 0.000000 0.000000 -5.994467 37.040164 66.362384 0.000012 54.665730 -0.000001 44.858429 5.503237 -36.428872 -9.351718 -1.600119 -17.560051 3.651720 -24.412472 34.712333 -6.515453 -37.600386 -11.078752 -0.000001 -0.000000 -0.000004 2.954279 1.012342 13.493642 0.483864 -2.068888 26.324304 0.061131 -0.752838 9.282800 -0.000002 -0.000001 -0.000002 0.105317 -3.658235 2.530049 0.592570 -2.275300 29.192092 0.019819 -0.429641 5.281567 -0.000000 -0.000001 0.000003 0.455247 -7.625825 4.309871 0.109724 -1.006024 12.448366 0.070517 -0.808170 9.971750 0.000001 0.000001 0.000003 -11.173439 -10.204955 7.126053 0.029263 -0.521843 6.419539 0.028905 -0.518676 6.380380 -0.000002 -0.000001 -0.000001 -92.216488 -8.993908 13.191490 81.287803 4.096930 -0.338098 12.754100 -7.011961 -7.571610 -0.135795 0.000000 0.000000 0.000000 0.000000 -0.000000 -93.362792 10.060160 -8.892521 81.522331 -4.131535 -1.452538 13.895519 0.173168 8.528336 -0.274047 -0.000031 0.040853 -0.000000 -0.000000 0.000000 
0.190028 63.653694 12.039398 0.302459 0.183167 0.925392 10.629211 0.024968 -1.539620 0.315336 0.220705 -0.432224 0.000000 0.000000 0.000000 0.118233 0.263075 -0.353244 -0.378663 -1.271492 0.326493 -11.685036 -4.574094 -4.904682 -0.000000 0.000000 -0.000000 1.802073 -13.648140 -4.308314 0.000000 0.000000 0.000000 -0.710283 -20.139147 -61.883440 0.000044 -60.953680 0.000045 35.923680 2.343223 40.900846 6.371259 1.919662 21.018736 2.597046 20.266824 -24.218321 -5.407434 29.816351 4.666565 -0.000000 0.000001 0.000000 -0.189489 2.911284 -27.505095 0.407950 2.149751 -21.487806 0.084337 0.991504 -9.723023 0.000000 -0.000000 -0.000001 1.321736 7.336933 -16.860349 0.311930 1.887870 -18.762632 0.233314 1.638462 -16.208087 -0.000001 -0.000001 0.000000 1.860532 9.917048 -14.489249 0.201463 1.524661 -15.054188 0.279498 1.789571 -17.751491 0.000002 0.000001 -0.000003 1.949152 10.829355 -13.919244 0.169493 1.400404 -13.801260 0.112022 1.141337 -11.210487 0.000000 -0.000001 0.000001 3.202633 -5.492629 7.084809 0.000000 0.000000 0.000000 -7.091213 36.919686 67.729303 -0.000015 54.479368 0.000037 45.560323 5.928807 -36.554698 -9.324219 -1.588507 -17.520812 3.726568 -24.479070 34.758218 -6.434074 -37.689086 -10.992993 0.000001 -0.000003 0.000000 2.954049 1.012876 13.461921 0.493626 -2.088499 26.593557 0.062326 -0.760201 9.374076 0.000000 -0.000001 0.000002 0.105326 -3.658241 2.530007 0.599064 -2.286874 29.355111 0.019252 -0.423539 5.206505 0.000000 0.000002 -0.000002 0.455242 -7.625784 4.309847 0.111683 -1.014838 12.559485 0.068915 -0.799036 9.857631 -0.000001 -0.000000 0.000002 -11.184664 -10.181514 7.087838 0.029332 -0.522417 6.426603 0.029026 -0.519713 6.393160 -0.000003 0.000001 -0.000001 -92.449834 -9.010906 13.097912 81.374928 4.166552 -0.257717 12.959048 -6.894314 -7.597616 -0.161295 0.000013 -0.000001 -0.000000 0.000001 0.000000 -93.555321 10.061860 -8.731311 81.648525 -4.135443 -1.579700 14.254167 0.044966 8.491464 -0.413913 -0.000904 0.247024 -0.000000 -0.000000 -0.000000 
0.190470 63.645103 12.086284 0.321117 0.189607 0.928390 10.755198 0.022838 -1.541943 0.561808 0.226205 -0.458109 0.000000 0.000000 0.000000 0.311177 0.271967 -0.384474 -0.128492 -1.267130 0.274483 -12.595949 -4.648123 -4.744551 0.000000 -0.000000 0.000000 2.105334 -13.032951 -2.969769 0.000000 0.000000 0.000000 -2.448515 -19.928776 -64.159402 -0.000019 -60.572843 -0.000033 37.331171 1.707259 40.857403 6.288038 1.960359 21.093328 2.555843 20.298235 -24.159503 -5.357994 29.811119 4.501568 -0.000002 0.000000 -0.000002 -0.175637 2.954809 -27.750130 0.413475 2.163690 -21.634599 0.084708 0.993694 -9.744598 0.000000 -0.000001 0.000001 1.329378 7.337844 -16.978858 0.306042 1.870434 -18.582913 0.233325 1.638429 -16.208027 0.000000 0.000000 0.000002 1.884558 9.954295 -14.612578 0.198541 1.513749 -14.943819 0.286833 1.812331 -17.985288 0.000003 0.000000 0.000002 1.917505 10.815938 -13.918983 0.169819 1.401756 -13.814969 0.114591 1.154247 -11.338937 -0.000000 0.000001 -0.000001 3.198645 -5.900651 6.470103 0.000000 0.000000 0.000000 -8.231923 36.790537 69.124219 0.000005 54.322024 -0.000001 46.276045 6.385769 -36.719438 -9.289243 -1.573734 -17.470939 3.821613 -24.562644 34.816404 -6.330115 -37.801170 -10.883392 0.000000 0.000002 0.000001 2.952721 1.013269 13.422248 0.506163 -2.113340 26.935560 0.063878 -0.769507 9.489961 -0.000001 0.000000 0.000001 0.105328 -3.658237 2.529944 0.607364 -2.301534 29.562544 0.018557 -0.415915 5.112413 0.000000 0.000000 -0.000002 0.455240 -7.625706 4.309799 0.114198 -1.026113 12.701125 0.066918 -0.787490 9.714047 -0.000000 -0.000001 0.000003 -11.200442 -10.151292 7.039734 0.029392 -0.523057 6.434428 0.029182 -0.521073 6.410034 -0.000003 0.000000 0.000002 -92.699430 -9.022773 12.980792 81.469786 4.252406 -0.149822 13.184485 -6.742715 -7.651799 -0.194337 0.000008 0.000001 0.000000 0.000000 -0.000000 -93.755842 10.035534 -8.530478 81.763716 -4.120835 -1.749615 14.689159 -0.133128 8.471020 -0.544257 -0.003960 0.517679 0.000000 0.000000 0.000000 
0.191740 63.636459 12.133367 0.330836 0.194945 0.930962 10.911785 0.023205 -1.543767 0.851041 0.233871 -0.485168 0.000000 0.000000 0.000000 0.550187 0.283418 -0.422933 0.140694 -1.261880 0.221131 -13.483681 -4.717395 -4.576509 -0.000000 -0.000000 -0.000000 2.388182 -12.383523 -1.564308 0.000000 0.000000 0.000000 -4.149419 -19.802747 -66.396938 -0.000019 -60.219333 -0.000023 38.620902 1.096395 40.930458 6.203660 2.000998 21.168617 2.514129 20.329532 -24.100066 -5.306567 29.807676 4.326837 0.000000 0.000000 0.000002 -0.160685 2.999562 -28.011955 0.419692 2.179351 -21.798899 0.085088 0.995815 -9.765704 0.000001 -0.000000 -0.000001 1.337201 7.338926 -17.099683 0.300189 1.852992 -18.403123 0.233319 1.638430 -16.207969 -0.000001 0.000001 -0.000002 1.909649 9.991849 -14.743091 0.195210 1.501186 -14.817026 0.295161 1.837772 -18.246456 0.000000 0.000003 -0.000003 1.885571 10.802314 -13.918716 0.170163 1.403137 -13.828725 0.117504 1.168639 -11.482211 0.000000 -0.000002 0.000006 3.185932 -6.324733 5.832568 0.000000 0.000000 0.000000 -9.414681 36.655617 70.541579 0.000004 54.188890 -0.000009 46.995079 6.874104 -36.926543 -9.247108 -1.555881 -17.410999 3.936160 -24.662514 34.886462 -6.204523 -37.935383 -10.750842 0.000001 -0.000001 0.000001 2.950256 1.013494 13.375537 0.521472 -2.143173 27.347633 0.065768 -0.780690 9.629279 0.000001 0.000001 -0.000001 0.105314 -3.658175 2.529910 0.617447 -2.319231 29.812683 0.017773 -0.406902 5.001370 0.000002 0.000001 0.000002 0.455226 -7.625651 4.309773 0.117281 -1.039692 12.872162 0.064602 -0.773823 9.543671 0.000000 0.000001 0.000002 -11.220474 -10.115006 6.982832 0.029486 -0.523836 6.444240 0.029423 -0.523107 6.435123 -0.000001 0.000002 -0.000001 -92.958636 -9.027012 12.841574 81.569159 4.342999 -0.015607 13.411372 -6.559295 -7.734870 -0.237455 -0.000001 -0.000001 0.000000 -0.000000 -0.000000 -93.954764 9.977480 -8.291553 81.858752 -4.088054 -1.963514 15.158297 -0.367871 8.476501 -0.643014 -0.010316 0.834402 -0.000000 -0.000000 -0.000000 
